<svg width="374" height="91" viewBox="0 0 374 91" fill="none" xmlns="http://www.w3.org/2000/svg">
<path d="M38.625 51.5H25.75V38.625H12.875V25.75H38.625V51.5ZM0 38.625H12.875V51.5H25.75V64.375H38.625V77.25H12.875V64.375H0V38.625Z" fill="url(#paint0_linear_2_48)"/>
<path d="M90.125 25.75H103V38.625H90.125V25.75ZM51.5 25.75H77.25V38.625H64.375V77.25H51.5V25.75ZM77.25 38.625H90.125V77.25H77.25V38.625ZM103 38.625H115.875V77.25H103V38.625Z" fill="url(#paint1_linear_2_48)"/>
<path d="M154.5 0H167.375V12.875H154.5V0ZM154.5 38.625H128.75V25.75H167.375V77.25H154.5V38.625ZM128.75 77.25H154.5V90.125H128.75V77.25Z" fill="url(#paint2_linear_2_48)"/>
<path d="M180.25 25.75H193.125V64.375H180.25V25.75ZM206 25.75H218.875V77.25H193.125V64.375H206V25.75Z" fill="url(#paint3_linear_2_48)"/>
<path d="M231.75 38.625H244.625V64.375H231.75V38.625ZM257.5 0H270.375V77.25H244.625V64.375H257.5V38.625H244.625V25.75H257.5V0Z" fill="url(#paint4_linear_2_48)"/>
<path d="M283.25 38.625H296.125V51.5H283.25V38.625ZM296.125 51.5H309V38.625H296.125V25.75H321.875V77.25H309V64.375H296.125V51.5ZM283.25 77.25H309V90.125H283.25V77.25Z" fill="url(#paint5_linear_2_48)"/>
<path d="M373.375 51.5H360.5V38.625H347.625V25.75H373.375V51.5ZM334.75 38.625H347.625V51.5H360.5V64.375H373.375V77.25H347.625V64.375H334.75V38.625Z" fill="url(#paint6_linear_2_48)"/>
<defs>
<linearGradient id="paint0_linear_2_48" x1="0" y1="38.75" x2="387" y2="38.75" gradientUnits="userSpaceOnUse">
<stop stop-color="#A6E3A1"/>
<stop offset="1" stop-color="#89B4FA"/>
</linearGradient>
<linearGradient id="paint1_linear_2_48" x1="0" y1="38.75" x2="387" y2="38.75" gradientUnits="userSpaceOnUse">
<stop stop-color="#A6E3A1"/>
<stop offset="1" stop-color="#89B4FA"/>
</linearGradient>
<linearGradient id="paint2_linear_2_48" x1="0" y1="38.75" x2="387" y2="38.75" gradientUnits="userSpaceOnUse">
<stop stop-color="#A6E3A1"/>
<stop offset="1" stop-color="#89B4FA"/>
</linearGradient>
<linearGradient id="paint3_linear_2_48" x1="0" y1="38.75" x2="387" y2="38.75" gradientUnits="userSpaceOnUse">
<stop stop-color="#A6E3A1"/>
<stop offset="1" stop-color="#89B4FA"/>
</linearGradient>
<linearGradient id="paint4_linear_2_48" x1="0" y1="38.75" x2="387" y2="38.75" gradientUnits="userSpaceOnUse">
<stop stop-color="#A6E3A1"/>
<stop offset="1" stop-color="#89B4FA"/>
</linearGradient>
<linearGradient id="paint5_linear_2_48" x1="0" y1="38.75" x2="387" y2="38.75" gradientUnits="userSpaceOnUse">
<stop stop-color="#A6E3A1"/>
<stop offset="1" stop-color="#89B4FA"/>
</linearGradient>
<linearGradient id="paint6_linear_2_48" x1="0" y1="38.75" x2="387" y2="38.75" gradientUnits="userSpaceOnUse">
<stop stop-color="#A6E3A1"/>
<stop offset="1" stop-color="#89B4FA"/>
</linearGradient>
</defs>
</svg>
